<svg width="156" height="30" viewBox="0 0 156 30" fill="none" xmlns="http://www.w3.org/2000/svg">
<path d="M0.84 18.08C0.84 17.5467 1.01333 17.28 1.36 17.28C1.54667 17.28 1.72 17.3733 1.88 17.56C2.68 18.52 3.58667 19.28 4.6 19.84C5.64 20.3733 6.89333 20.64 8.36 20.64C10.0133 20.64 11.2933 20.32 12.2 19.68C13.1067 19.0133 13.56 18.12 13.56 17C13.56 16.2 13.2667 15.56 12.68 15.08C12.0933 14.5733 11.3467 14.1467 10.44 13.8C9.53333 13.4533 8.56 13.1067 7.52 12.76C6.48 12.4133 5.50667 12 4.6 11.52C3.69333 11.0133 2.94667 10.36 2.36 9.56C1.77333 8.76 1.48 7.72 1.48 6.44C1.48 5.18667 1.8 4.10667 2.44 3.2C3.10667 2.29333 4 1.6 5.12 1.12C6.24 0.613331 7.52 0.359998 8.96 0.359998C10.0533 0.359998 11.04 0.453332 11.92 0.639999C12.8267 0.826665 13.6533 1.09333 14.4 1.44C15.7333 1.92 16.24 2.72 15.92 3.84L15.72 4.64C15.6667 4.90667 15.56 5.04 15.4 5.04C15.2933 5.04 15.0933 4.96 14.8 4.8C13.9733 4.26667 13.0533 3.85333 12.04 3.56C11.0533 3.24 10.0133 3.08 8.92 3.08C7.66667 3.08 6.62667 3.36 5.8 3.92C4.97333 4.48 4.56 5.26667 4.56 6.28C4.56 7.10667 4.85333 7.77333 5.44 8.28C6.02667 8.78667 6.77333 9.21333 7.68 9.56C8.58667 9.88 9.56 10.2133 10.6 10.56C11.64 10.9067 12.6133 11.32 13.52 11.8C14.4267 12.2533 15.1733 12.8667 15.76 13.64C16.3467 14.4133 16.64 15.4133 16.64 16.64C16.64 18.6667 15.9333 20.3067 14.52 21.56C13.1333 22.8133 11.1867 23.44 8.68 23.44C6.86667 23.44 5.37333 23.1467 4.2 22.56C3.05333 21.9733 2.2 21.2667 1.64 20.44C1.10667 19.5867 0.84 18.8 0.84 18.08ZM31.0916 20.92C30.5049 21.7467 29.7982 22.36 28.9716 22.76C28.1449 23.16 27.2249 23.36 26.2116 23.36C24.7449 23.36 23.4916 23.0133 22.4516 22.32C21.4382 21.6267 20.6649 20.6933 20.1316 19.52C19.5982 18.3467 19.3316 17.0533 19.3316 15.64C19.3316 14.1467 19.6249 12.8267 20.2116 11.68C20.7982 10.5067 21.6116 9.58667 22.6516 8.92C23.7182 8.25333 24.9449 7.92 26.3316 7.92C27.4516 7.92 28.4249 8.13333 29.2516 8.56C30.1049 8.98667 30.7716 9.54667 31.2516 10.24C31.3849 9.54667 31.6516 9.05333 32.0516 8.76C32.4516 8.44 32.9582 8.28 33.5716 8.28H33.7716C33.9582 8.28 34.0516 8.4 34.0516 8.64V22.64C34.0516 22.88 33.9582 23 33.7716 23H31.4116C31.1982 23 31.0916 22.88 31.0916 22.64V20.92ZM26.6516 20.56C27.3182 20.56 27.9849 20.4267 28.6516 20.16C29.3449 19.8667 29.9182 19.36 30.3716 18.64C30.8516 17.92 31.0916 16.92 31.0916 15.64C31.0916 14.3333 30.8516 13.3333 30.3716 12.64C29.9182 11.92 29.3582 11.4267 28.6916 11.16C28.0249 10.8933 27.3849 10.76 26.7716 10.76C25.6249 10.76 24.6116 11.16 23.7316 11.96C22.8516 12.76 22.4116 13.9867 22.4116 15.64C22.4116 16.84 22.6249 17.8 23.0516 18.52C23.5049 19.24 24.0516 19.76 24.6916 20.08C25.3582 20.4 26.0116 20.56 26.6516 20.56ZM43.3338 19.72L46.8538 8.72C46.9604 8.42667 47.1738 8.28 47.4938 8.28H49.6938C49.8804 8.28 49.9471 8.38667 49.8938 8.6L45.0138 22.68C44.9338 22.8933 44.8004 23 44.6138 23H42.0538C41.8404 23 41.6804 22.8933 41.5738 22.68L36.6938 8.6C36.6138 8.38667 36.6804 8.28 36.8938 8.28H37.5338C38.3338 8.28 38.9471 8.45333 39.3738 8.8C39.8271 9.12 40.2004 9.77333 40.4938 10.76L43.3338 19.72ZM59.3106 23.36C57.044 23.36 55.2306 22.6667 53.8706 21.28C52.5373 19.8667 51.8706 18 51.8706 15.68C51.8706 13.36 52.5373 11.4933 53.8706 10.08C55.2306 8.64 57.0306 7.92 59.2706 7.92C61.5373 7.92 63.3506 8.64 64.7106 10.08C66.0706 11.4933 66.7506 13.3467 66.7506 15.64C66.7506 17.96 66.0706 19.8267 64.7106 21.24C63.3773 22.6533 61.5773 23.36 59.3106 23.36ZM59.2706 20.52C60.524 20.52 61.564 20.12 62.3906 19.32C63.244 18.52 63.6706 17.3067 63.6706 15.68C63.6706 14.1067 63.244 12.8933 62.3906 12.04C61.564 11.1867 60.524 10.76 59.2706 10.76C57.9906 10.76 56.9506 11.1867 56.1506 12.04C55.3506 12.8933 54.9506 14.1067 54.9506 15.68C54.9506 17.2533 55.3506 18.4533 56.1506 19.28C56.9506 20.1067 57.9906 20.52 59.2706 20.52ZM73.2812 10.4C73.7613 9.57333 74.3346 9.01333 75.0013 8.72C75.6679 8.42667 76.5346 8.28 77.6013 8.28H78.0413C78.2546 8.28 78.3613 8.38667 78.3613 8.6V10.8C78.3613 11.04 78.2546 11.16 78.0413 11.16H77.0813C75.6679 11.16 74.6946 11.52 74.1612 12.24C73.6279 12.96 73.3613 14.0933 73.3613 15.64V22.64C73.3613 22.88 73.2679 23 73.0813 23H70.7213C70.5079 23 70.4013 22.88 70.4013 22.64V8.6C70.4013 8.38667 70.5079 8.28 70.7213 8.28H70.9212C71.5879 8.28 72.1213 8.46667 72.5213 8.84C72.9479 9.18667 73.2013 9.70667 73.2812 10.4ZM85.1341 23.28L80.0141 8.64C79.9607 8.4 80.0274 8.28 80.2141 8.28H80.8941C81.7207 8.28 82.3341 8.45333 82.7341 8.8C83.1341 9.14667 83.5074 9.8 83.8541 10.76L86.7341 19.48L90.2541 8.72C90.3607 8.42667 90.5741 8.28 90.8941 8.28H93.0941C93.2807 8.28 93.3474 8.4 93.2941 8.64L88.0541 23.36C87.6007 24.6667 87.1341 25.8 86.6541 26.76C86.1741 27.7467 85.6007 28.5067 84.9341 29.04C84.2941 29.5733 83.4674 29.84 82.4541 29.84C81.4407 29.84 80.6274 29.5067 80.0141 28.84C79.4007 28.1733 79.0941 27.4667 79.0941 26.72C79.0941 26.5867 79.1341 26.4533 79.2141 26.32C79.2674 26.1867 79.3607 26.12 79.4941 26.12C79.6274 26.12 79.7474 26.1733 79.8541 26.28C80.2274 26.5733 80.5741 26.8 80.8941 26.96C81.2141 27.1467 81.5607 27.24 81.9341 27.24C82.6541 27.24 83.2274 26.96 83.6541 26.4C84.0807 25.8667 84.5741 24.8267 85.1341 23.28Z" fill="black"/>
<path d="M100.787 3.6H94.7472C94.5339 3.6 94.4272 3.48 94.4272 3.24V1.12C94.4272 0.879998 94.5339 0.759998 94.7472 0.759998H108.467C109.694 0.759998 110.307 1.33333 110.307 2.48V3.16C110.307 3.45333 110.161 3.6 109.867 3.6H103.787V22.64C103.787 22.88 103.694 23 103.507 23H101.147C100.907 23 100.787 22.88 100.787 22.64V3.6ZM115.195 10.4C115.675 9.57333 116.249 9.01333 116.915 8.72C117.582 8.42667 118.449 8.28 119.515 8.28H119.955C120.169 8.28 120.275 8.38667 120.275 8.6V10.8C120.275 11.04 120.169 11.16 119.955 11.16H118.995C117.582 11.16 116.609 11.52 116.075 12.24C115.542 12.96 115.275 14.0933 115.275 15.64V22.64C115.275 22.88 115.182 23 114.995 23H112.635C112.422 23 112.315 22.88 112.315 22.64V8.6C112.315 8.38667 112.422 8.28 112.635 8.28H112.835C113.502 8.28 114.035 8.46667 114.435 8.84C114.862 9.18667 115.115 9.70667 115.195 10.4ZM134.334 20.92C133.747 21.7467 133.04 22.36 132.214 22.76C131.387 23.16 130.467 23.36 129.454 23.36C127.987 23.36 126.734 23.0133 125.694 22.32C124.68 21.6267 123.907 20.6933 123.374 19.52C122.84 18.3467 122.574 17.0533 122.574 15.64C122.574 14.1467 122.867 12.8267 123.454 11.68C124.04 10.5067 124.854 9.58667 125.894 8.92C126.96 8.25333 128.187 7.92 129.574 7.92C130.694 7.92 131.667 8.13333 132.494 8.56C133.347 8.98667 134.014 9.54667 134.494 10.24C134.627 9.54667 134.894 9.05333 135.294 8.76C135.694 8.44 136.2 8.28 136.814 8.28H137.014C137.2 8.28 137.294 8.4 137.294 8.64V22.64C137.294 22.88 137.2 23 137.014 23H134.654C134.44 23 134.334 22.88 134.334 22.64V20.92ZM129.894 20.56C130.56 20.56 131.227 20.4267 131.894 20.16C132.587 19.8667 133.16 19.36 133.614 18.64C134.094 17.92 134.334 16.92 134.334 15.64C134.334 14.3333 134.094 13.3333 133.614 12.64C133.16 11.92 132.6 11.4267 131.934 11.16C131.267 10.8933 130.627 10.76 130.014 10.76C128.867 10.76 127.854 11.16 126.974 11.96C126.094 12.76 125.654 13.9867 125.654 15.64C125.654 16.84 125.867 17.8 126.294 18.52C126.747 19.24 127.294 19.76 127.934 20.08C128.6 20.4 129.254 20.56 129.894 20.56ZM141.293 4.32C141.293 3.78667 141.466 3.34667 141.813 3C142.16 2.65333 142.586 2.48 143.093 2.48C143.573 2.48 143.986 2.65333 144.333 3C144.68 3.34667 144.853 3.78667 144.853 4.32C144.853 4.82667 144.68 5.25333 144.333 5.6C143.986 5.94667 143.573 6.12 143.093 6.12C142.586 6.12 142.16 5.94667 141.813 5.6C141.466 5.25333 141.293 4.82667 141.293 4.32ZM141.893 23C141.68 23 141.573 22.88 141.573 22.64V8.64C141.573 8.4 141.68 8.28 141.893 8.28H142.093C142.866 8.28 143.466 8.50667 143.893 8.96C144.346 9.41333 144.573 10.1067 144.573 11.04V22.64C144.573 22.88 144.466 23 144.253 23H141.893ZM152.441 23.36C151.294 23.36 150.387 23 149.721 22.28C149.054 21.5333 148.721 20.36 148.721 18.76V1.12C148.721 0.879998 148.827 0.759998 149.041 0.759998H149.241C150.867 0.759998 151.681 1.68 151.681 3.52V18.56C151.681 19.9467 152.201 20.64 153.241 20.64C153.667 20.64 154.027 20.56 154.321 20.4C154.614 20.2133 154.894 19.9733 155.161 19.68C155.294 19.52 155.427 19.44 155.561 19.44C155.694 19.44 155.787 19.4933 155.841 19.6C155.894 19.7067 155.921 19.8267 155.921 19.96C155.921 20.3867 155.801 20.8667 155.561 21.4C155.347 21.9333 154.987 22.4 154.481 22.8C153.974 23.1733 153.294 23.36 152.441 23.36Z" fill="#E14D0D"/>
</svg>
